<svg xmlns="http://www.w3.org/2000/svg" width="1200" height="500" viewBox="0 0 1200 500" role="img" aria-label="Kiến trúc tổng quan SiamRPN">
  <defs>
    <marker id="arrow-rpn-arch" markerWidth="9" markerHeight="9" refX="8" refY="4.5" orient="auto">
      <path d="M0,0 L9,4.5 L0,9 Z" fill="#455a64"/>
    </marker>
  </defs>
  <rect width="1200" height="500" fill="#ffffff"/>
  <text x="600" y="38" text-anchor="middle" font-size="27" font-weight="700" font-family="Arial, sans-serif" fill="#263238">SiamRPN: bộ trích đặc trưng Siamese + RPN hai nhánh</text>

  <g transform="translate(50,78)">
    <rect x="0" y="0" width="120" height="95" rx="8" fill="#e3f2fd" stroke="#1565c0" stroke-width="3"/>
    <text x="60" y="38" text-anchor="middle" font-size="18" font-weight="700" font-family="Arial, sans-serif" fill="#1565c0">mẫu</text>
    <text x="60" y="64" text-anchor="middle" font-size="16" font-family="Arial, sans-serif" fill="#455a64">127 x 127</text>
  </g>
  <g transform="translate(50,288)">
    <rect x="0" y="0" width="120" height="95" rx="8" fill="#e8f5e9" stroke="#2e7d32" stroke-width="3"/>
    <text x="60" y="38" text-anchor="middle" font-size="18" font-weight="700" font-family="Arial, sans-serif" fill="#2e7d32">vùng tìm</text>
    <text x="60" y="64" text-anchor="middle" font-size="16" font-family="Arial, sans-serif" fill="#455a64">255 x 255</text>
  </g>

  <path d="M190 126 L252 126" stroke="#455a64" stroke-width="4" marker-end="url(#arrow-rpn-arch)"/>
  <path d="M190 336 L252 336" stroke="#455a64" stroke-width="4" marker-end="url(#arrow-rpn-arch)"/>

  <g transform="translate(270,78)">
    <rect x="0" y="0" width="160" height="95" rx="8" fill="#f7f7f7" stroke="#90a4ae" stroke-width="3"/>
    <text x="80" y="38" text-anchor="middle" font-size="18" font-weight="700" font-family="Arial, sans-serif" fill="#263238">CNN</text>
    <text x="80" y="64" text-anchor="middle" font-size="16" font-family="Arial, sans-serif" fill="#455a64">trọng số chung</text>
  </g>
  <g transform="translate(270,288)">
    <rect x="0" y="0" width="160" height="95" rx="8" fill="#f7f7f7" stroke="#90a4ae" stroke-width="3"/>
    <text x="80" y="38" text-anchor="middle" font-size="18" font-weight="700" font-family="Arial, sans-serif" fill="#263238">CNN</text>
    <text x="80" y="64" text-anchor="middle" font-size="16" font-family="Arial, sans-serif" fill="#455a64">trọng số chung</text>
  </g>

  <path d="M450 126 L510 126" stroke="#455a64" stroke-width="4" marker-end="url(#arrow-rpn-arch)"/>
  <path d="M450 336 L510 336" stroke="#455a64" stroke-width="4" marker-end="url(#arrow-rpn-arch)"/>

  <g transform="translate(530,62)">
    <rect x="0" y="0" width="140" height="65" rx="8" fill="#e3f2fd" stroke="#1565c0" stroke-width="3"/>
    <text x="70" y="39" text-anchor="middle" font-size="18" font-family="Arial, sans-serif" fill="#1565c0">mẫu phân loại</text>
    <rect x="0" y="90" width="140" height="65" rx="8" fill="#e3f2fd" stroke="#1565c0" stroke-width="3"/>
    <text x="70" y="129" text-anchor="middle" font-size="18" font-family="Arial, sans-serif" fill="#1565c0">mẫu hồi quy</text>
  </g>
  <g transform="translate(530,272)">
    <rect x="0" y="0" width="140" height="65" rx="8" fill="#e8f5e9" stroke="#2e7d32" stroke-width="3"/>
    <text x="70" y="39" text-anchor="middle" font-size="18" font-family="Arial, sans-serif" fill="#2e7d32">vùng phân loại</text>
    <rect x="0" y="90" width="140" height="65" rx="8" fill="#e8f5e9" stroke="#2e7d32" stroke-width="3"/>
    <text x="70" y="129" text-anchor="middle" font-size="18" font-family="Arial, sans-serif" fill="#2e7d32">vùng hồi quy</text>
  </g>

  <path d="M690 94 C744 110 760 176 800 202" stroke="#455a64" stroke-width="4" fill="none" marker-end="url(#arrow-rpn-arch)"/>
  <path d="M690 304 C744 288 760 230 800 204" stroke="#455a64" stroke-width="4" fill="none" marker-end="url(#arrow-rpn-arch)"/>
  <path d="M690 184 C744 206 760 264 800 292" stroke="#455a64" stroke-width="4" fill="none" marker-end="url(#arrow-rpn-arch)"/>
  <path d="M690 394 C744 378 760 320 800 294" stroke="#455a64" stroke-width="4" fill="none" marker-end="url(#arrow-rpn-arch)"/>

  <g transform="translate(825,158)">
    <rect x="0" y="0" width="155" height="85" rx="8" fill="#fff3e0" stroke="#ef6c00" stroke-width="3"/>
    <text x="78" y="34" text-anchor="middle" font-size="18" font-weight="700" font-family="Arial, sans-serif" fill="#ef6c00">nhánh phân loại</text>
    <text x="78" y="60" text-anchor="middle" font-size="16" font-family="Arial, sans-serif" fill="#455a64">2k điểm / vị trí</text>
    <rect x="0" y="120" width="155" height="85" rx="8" fill="#f3e5f5" stroke="#7b1fa2" stroke-width="3"/>
    <text x="78" y="154" text-anchor="middle" font-size="18" font-weight="700" font-family="Arial, sans-serif" fill="#7b1fa2">nhánh hồi quy</text>
    <text x="78" y="180" text-anchor="middle" font-size="16" font-family="Arial, sans-serif" fill="#455a64">4k độ lệch / vị trí</text>
  </g>

  <path d="M1002 202 L1080 202" stroke="#455a64" stroke-width="4" marker-end="url(#arrow-rpn-arch)"/>
  <path d="M1002 292 L1080 292" stroke="#455a64" stroke-width="4" marker-end="url(#arrow-rpn-arch)"/>
  <g transform="translate(1090,168)">
    <rect x="0" y="0" width="90" height="150" rx="8" fill="#e8f5e9" stroke="#2e7d32" stroke-width="3"/>
    <text x="45" y="42" text-anchor="middle" font-size="18" font-weight="700" font-family="Arial, sans-serif" fill="#2e7d32">hộp</text>
    <text x="45" y="72" text-anchor="middle" font-size="18" font-weight="700" font-family="Arial, sans-serif" fill="#2e7d32">đề xuất</text>
    <text x="45" y="112" text-anchor="middle" font-size="15" font-family="Arial, sans-serif" fill="#455a64">điểm + tọa độ</text>
  </g>

  <text x="600" y="468" text-anchor="middle" font-size="20" font-family="Arial, sans-serif" fill="#455a64">phân loại: mục tiêu hay nền; hồi quy: chỉnh hộp neo thành hộp mục tiêu.</text>
</svg>
