<svg xmlns="http://www.w3.org/2000/svg" width="1120" height="420" viewBox="0 0 1120 420">
  <rect width="1120" height="420" fill="#ffffff"/>
  <text x="560" y="38" text-anchor="middle" font-size="27" font-weight="700" font-family="Arial, sans-serif" fill="#263238">SORT xem MOT như nối hộp phát hiện qua thời gian</text>
  <defs>
    <marker id="arrow" markerWidth="12" markerHeight="12" refX="10" refY="6" orient="auto">
      <path d="M2,2 L10,6 L2,10 Z" fill="#546e7a"/>
    </marker>
  </defs>

  <g transform="translate(45,85)">
    <rect x="0" y="0" width="180" height="230" rx="8" fill="#e3f2fd" stroke="#1565c0" stroke-width="2"/>
    <text x="90" y="34" text-anchor="middle" font-size="21" font-weight="700" font-family="Arial, sans-serif" fill="#1565c0">khung t</text>
    <rect x="35" y="75" width="48" height="96" fill="none" stroke="#2e7d32" stroke-width="5"/>
    <rect x="106" y="70" width="42" height="92" fill="none" stroke="#ef6c00" stroke-width="5"/>
    <circle cx="58" cy="120" r="12" fill="#2e7d32" opacity="0.22"/>
    <circle cx="127" cy="118" r="12" fill="#ef6c00" opacity="0.25"/>
    <text x="90" y="205" text-anchor="middle" font-size="18" font-family="Arial, sans-serif" fill="#263238">bộ phát hiện</text>
  </g>

  <line x1="245" y1="200" x2="335" y2="200" stroke="#546e7a" stroke-width="4" marker-end="url(#arrow)"/>

  <g transform="translate(350,85)">
    <rect x="0" y="0" width="190" height="230" rx="8" fill="#fff3e0" stroke="#ef6c00" stroke-width="2"/>
    <text x="95" y="34" text-anchor="middle" font-size="21" font-weight="700" font-family="Arial, sans-serif" fill="#ef6c00">dự báo</text>
    <text x="95" y="78" text-anchor="middle" font-size="19" font-family="Arial, sans-serif" fill="#263238">Kalman</text>
    <rect x="42" y="118" width="48" height="96" fill="none" stroke="#2e7d32" stroke-width="4" stroke-dasharray="9 7"/>
    <rect x="112" y="112" width="42" height="92" fill="none" stroke="#ef6c00" stroke-width="4" stroke-dasharray="9 7"/>
    <path d="M66,111 C78,90 90,87 102,78" fill="none" stroke="#2e7d32" stroke-width="3" marker-end="url(#arrow)"/>
    <path d="M133,106 C143,92 154,85 166,75" fill="none" stroke="#ef6c00" stroke-width="3" marker-end="url(#arrow)"/>
  </g>

  <line x1="560" y1="200" x2="650" y2="200" stroke="#546e7a" stroke-width="4" marker-end="url(#arrow)"/>

  <g transform="translate(665,85)">
    <rect x="0" y="0" width="190" height="230" rx="8" fill="#f3e5f5" stroke="#7b1fa2" stroke-width="2"/>
    <text x="95" y="34" text-anchor="middle" font-size="21" font-weight="700" font-family="Arial, sans-serif" fill="#7b1fa2">ghép cặp</text>
    <text x="95" y="72" text-anchor="middle" font-size="18" font-family="Arial, sans-serif" fill="#263238">IoU + Hungarian</text>
    <line x1="50" y1="115" x2="138" y2="108" stroke="#2e7d32" stroke-width="4"/>
    <line x1="62" y1="170" x2="130" y2="172" stroke="#ef6c00" stroke-width="4"/>
    <circle cx="50" cy="115" r="15" fill="#2e7d32"/>
    <circle cx="62" cy="170" r="15" fill="#ef6c00"/>
    <rect x="123" y="91" width="35" height="34" fill="none" stroke="#2e7d32" stroke-width="4"/>
    <rect x="115" y="154" width="38" height="40" fill="none" stroke="#ef6c00" stroke-width="4"/>
  </g>

  <line x1="875" y1="200" x2="965" y2="200" stroke="#546e7a" stroke-width="4" marker-end="url(#arrow)"/>

  <g transform="translate(980,85)">
    <rect x="0" y="0" width="100" height="230" rx="8" fill="#e8f5e9" stroke="#2e7d32" stroke-width="2"/>
    <text x="50" y="36" text-anchor="middle" font-size="20" font-weight="700" font-family="Arial, sans-serif" fill="#2e7d32">ID</text>
    <text x="50" y="72" text-anchor="middle" font-size="18" font-family="Arial, sans-serif" fill="#263238">giữ</text>
    <text x="50" y="101" text-anchor="middle" font-size="18" font-family="Arial, sans-serif" fill="#263238">quỹ đạo</text>
    <path d="M32,140 C42,122 61,122 70,140 C82,164 52,181 32,158" fill="none" stroke="#2e7d32" stroke-width="5"/>
    <text x="50" y="204" text-anchor="middle" font-size="17" font-family="Arial, sans-serif" fill="#263238">mỗi vật</text>
  </g>

  <text x="560" y="380" text-anchor="middle" font-size="21" font-family="Arial, sans-serif" fill="#455a64">Mấu chốt không phải “nhìn lại toàn bộ video”, mà là quyết định trực tuyến ở từng khung hình.</text>
</svg>
