<svg xmlns="http://www.w3.org/2000/svg" width="1120" height="420" viewBox="0 0 1120 420">
  <rect width="1120" height="420" fill="#ffffff"/>
  <text x="560" y="38" text-anchor="middle" font-size="27" font-weight="700" font-family="Arial, sans-serif" fill="#263238">SORT mô tả mỗi quỹ đạo bằng trạng thái hình học đơn giản</text>
  <g transform="translate(70,88)">
    <rect x="0" y="0" width="310" height="235" rx="8" fill="#e3f2fd" stroke="#1565c0" stroke-width="2"/>
    <text x="155" y="32" text-anchor="middle" font-size="21" font-weight="700" font-family="Arial, sans-serif" fill="#1565c0">hộp hiện tại</text>
    <rect x="97" y="82" width="96" height="118" fill="none" stroke="#2e7d32" stroke-width="6"/>
    <circle cx="145" cy="141" r="7" fill="#c62828"/>
    <line x1="145" y1="141" x2="222" y2="105" stroke="#c62828" stroke-width="4" marker-end="url(#arrow)"/>
    <text x="230" y="98" font-size="18" font-family="Arial, sans-serif" fill="#c62828">tâm</text>
    <text x="145" y="225" text-anchor="middle" font-size="18" font-family="Arial, sans-serif" fill="#263238">rộng, cao → diện tích và tỉ lệ</text>
  </g>
  <defs>
    <marker id="arrow" markerWidth="12" markerHeight="12" refX="10" refY="6" orient="auto">
      <path d="M2,2 L10,6 L2,10 Z" fill="#c62828"/>
    </marker>
  </defs>
  <g transform="translate(440,92)">
    <rect x="0" y="0" width="610" height="228" rx="8" fill="#fafafa" stroke="#cfd8dc" stroke-width="2"/>
    <text x="305" y="42" text-anchor="middle" font-size="24" font-weight="700" font-family="Arial, sans-serif" fill="#263238">x = [u, v, s, r, u_dot, v_dot, s_dot]</text>
    <g transform="translate(38,80)">
      <rect x="0" y="0" width="120" height="106" rx="8" fill="#e8f5e9" stroke="#2e7d32" stroke-width="2"/>
      <text x="60" y="35" text-anchor="middle" font-size="20" font-weight="700" font-family="Arial, sans-serif" fill="#2e7d32">u, v</text>
      <text x="60" y="72" text-anchor="middle" font-size="17" font-family="Arial, sans-serif" fill="#263238">tâm hộp</text>
    </g>
    <g transform="translate(182,80)">
      <rect x="0" y="0" width="120" height="106" rx="8" fill="#fff3e0" stroke="#ef6c00" stroke-width="2"/>
      <text x="60" y="35" text-anchor="middle" font-size="20" font-weight="700" font-family="Arial, sans-serif" fill="#ef6c00">s</text>
      <text x="60" y="72" text-anchor="middle" font-size="17" font-family="Arial, sans-serif" fill="#263238">diện tích</text>
    </g>
    <g transform="translate(326,80)">
      <rect x="0" y="0" width="120" height="106" rx="8" fill="#f3e5f5" stroke="#7b1fa2" stroke-width="2"/>
      <text x="60" y="35" text-anchor="middle" font-size="20" font-weight="700" font-family="Arial, sans-serif" fill="#7b1fa2">r</text>
      <text x="60" y="72" text-anchor="middle" font-size="17" font-family="Arial, sans-serif" fill="#263238">tỉ lệ cạnh</text>
    </g>
    <g transform="translate(470,80)">
      <rect x="0" y="0" width="120" height="106" rx="8" fill="#ffebee" stroke="#c62828" stroke-width="2"/>
      <text x="60" y="35" text-anchor="middle" font-size="19" font-weight="700" font-family="Arial, sans-serif" fill="#c62828">u_dot...</text>
      <text x="60" y="72" text-anchor="middle" font-size="17" font-family="Arial, sans-serif" fill="#263238">vận tốc</text>
    </g>
  </g>
  <text x="560" y="380" text-anchor="middle" font-size="21" font-family="Arial, sans-serif" fill="#455a64">Tỉ lệ cạnh thường được giữ gần như không đổi; vận tốc giúp dự báo hộp ở khung tiếp theo.</text>
</svg>
