<svg xmlns="http://www.w3.org/2000/svg" width="1200" height="470" viewBox="0 0 1200 470" role="img" aria-label="Bám bắt đối tượng qua chuỗi khung hình">
  <defs>
    <marker id="trk-arrow" markerWidth="9" markerHeight="9" refX="8" refY="4.5" orient="auto">
      <path d="M0,0 L9,4.5 L0,9 Z" fill="#455a64"/>
    </marker>
    <linearGradient id="road" x1="0" x2="1" y1="0" y2="1">
      <stop offset="0" stop-color="#eef7ff"/>
      <stop offset="1" stop-color="#f1f8e9"/>
    </linearGradient>
  </defs>

  <rect width="1200" height="470" fill="#ffffff"/>
  <text x="600" y="42" text-anchor="middle" font-size="28" font-weight="700" font-family="Arial, sans-serif" fill="#263238">Cùng một đối tượng, nhiều khung hình</text>

  <g transform="translate(52,80)">
    <rect x="0" y="0" width="320" height="260" rx="12" fill="url(#road)" stroke="#90a4ae" stroke-width="2"/>
    <text x="160" y="30" text-anchor="middle" font-size="22" font-weight="700" font-family="Arial, sans-serif" fill="#1565c0">Khung t</text>
    <rect x="0" y="190" width="320" height="70" fill="#c8e6c9"/>
    <path d="M0 184 C70 152 125 176 188 139 C242 108 284 116 320 126 L320 194 L0 194 Z" fill="#bbdefb"/>
    <g transform="translate(76,112)">
      <ellipse cx="52" cy="87" rx="58" ry="15" fill="#90a4ae" opacity="0.35"/>
      <rect x="12" y="38" width="84" height="50" rx="8" fill="#ffcc80" stroke="#ef6c00" stroke-width="3"/>
      <circle cx="30" cy="90" r="12" fill="#37474f"/>
      <circle cx="78" cy="90" r="12" fill="#37474f"/>
      <rect x="26" y="24" width="44" height="28" rx="6" fill="#ffe0b2" stroke="#ef6c00" stroke-width="3"/>
    </g>
    <rect x="80" y="120" width="110" height="95" fill="none" stroke="#ef6c00" stroke-width="6"/>
    <text x="135" y="239" text-anchor="middle" font-size="18" font-family="Arial, sans-serif" fill="#e65100">ID 7</text>
  </g>

  <path d="M392 205 L484 205" stroke="#455a64" stroke-width="4" marker-end="url(#trk-arrow)"/>
  <text x="438" y="178" text-anchor="middle" font-size="17" font-family="Arial, sans-serif" fill="#455a64">thời gian</text>

  <g transform="translate(492,80)">
    <rect x="0" y="0" width="320" height="260" rx="12" fill="url(#road)" stroke="#90a4ae" stroke-width="2"/>
    <text x="160" y="30" text-anchor="middle" font-size="22" font-weight="700" font-family="Arial, sans-serif" fill="#1565c0">Khung t+1</text>
    <rect x="0" y="190" width="320" height="70" fill="#c8e6c9"/>
    <path d="M0 184 C70 152 125 176 188 139 C242 108 284 116 320 126 L320 194 L0 194 Z" fill="#bbdefb"/>
    <g transform="translate(116,112)">
      <ellipse cx="52" cy="87" rx="58" ry="15" fill="#90a4ae" opacity="0.35"/>
      <rect x="12" y="38" width="84" height="50" rx="8" fill="#ffcc80" stroke="#ef6c00" stroke-width="3"/>
      <circle cx="30" cy="90" r="12" fill="#37474f"/>
      <circle cx="78" cy="90" r="12" fill="#37474f"/>
      <rect x="26" y="24" width="44" height="28" rx="6" fill="#ffe0b2" stroke="#ef6c00" stroke-width="3"/>
    </g>
    <rect x="120" y="120" width="110" height="95" fill="none" stroke="#ef6c00" stroke-width="6"/>
    <text x="175" y="239" text-anchor="middle" font-size="18" font-family="Arial, sans-serif" fill="#e65100">ID 7</text>
  </g>

  <path d="M832 205 L924 205" stroke="#455a64" stroke-width="4" marker-end="url(#trk-arrow)"/>

  <g transform="translate(932,80)">
    <rect x="0" y="0" width="220" height="260" rx="12" fill="url(#road)" stroke="#90a4ae" stroke-width="2"/>
    <text x="110" y="30" text-anchor="middle" font-size="22" font-weight="700" font-family="Arial, sans-serif" fill="#1565c0">Khung t+2</text>
    <rect x="0" y="190" width="220" height="70" fill="#c8e6c9"/>
    <path d="M0 184 C50 152 90 176 132 139 C170 108 196 116 220 126 L220 194 L0 194 Z" fill="#bbdefb"/>
    <g transform="translate(78,112)">
      <ellipse cx="52" cy="87" rx="58" ry="15" fill="#90a4ae" opacity="0.35"/>
      <rect x="12" y="38" width="84" height="50" rx="8" fill="#ffcc80" stroke="#ef6c00" stroke-width="3"/>
      <circle cx="30" cy="90" r="12" fill="#37474f"/>
      <circle cx="78" cy="90" r="12" fill="#37474f"/>
      <rect x="26" y="24" width="44" height="28" rx="6" fill="#ffe0b2" stroke="#ef6c00" stroke-width="3"/>
    </g>
    <rect x="82" y="120" width="110" height="95" fill="none" stroke="#ef6c00" stroke-width="6"/>
    <text x="137" y="239" text-anchor="middle" font-size="18" font-family="Arial, sans-serif" fill="#e65100">ID 7</text>
  </g>

  <path d="M132 362 C272 421 575 426 1070 359" fill="none" stroke="#7b1fa2" stroke-width="6" stroke-linecap="round"/>
  <circle cx="132" cy="362" r="8" fill="#7b1fa2"/>
  <circle cx="667" cy="397" r="8" fill="#7b1fa2"/>
  <circle cx="1070" cy="359" r="8" fill="#7b1fa2"/>
  <text x="600" y="438" text-anchor="middle" font-size="22" font-family="Arial, sans-serif" fill="#4a148c">Quỹ đạo là chuỗi quyết định: đối tượng này ở đâu tiếp theo?</text>
</svg>
