<svg xmlns="http://www.w3.org/2000/svg" width="1200" height="620" viewBox="0 0 1200 620" role="img" aria-label="Bài toán mô hình sinh ảnh">
  <defs>
    <marker id="arrow" markerWidth="10" markerHeight="10" refX="8" refY="5" orient="auto">
      <path d="M0,0 L10,5 L0,10 Z" fill="#555"/>
    </marker>
    <linearGradient id="imgA" x1="0" x2="1" y1="0" y2="1">
      <stop offset="0%" stop-color="#e3f2fd"/>
      <stop offset="100%" stop-color="#bbdefb"/>
    </linearGradient>
    <linearGradient id="imgB" x1="0" x2="1" y1="0" y2="1">
      <stop offset="0%" stop-color="#fff3e0"/>
      <stop offset="100%" stop-color="#ffe0b2"/>
    </linearGradient>
    <linearGradient id="imgC" x1="0" x2="1" y1="0" y2="1">
      <stop offset="0%" stop-color="#e8f5e9"/>
      <stop offset="100%" stop-color="#c8e6c9"/>
    </linearGradient>
  </defs>

  <rect x="24" y="32" width="1152" height="540" rx="18" fill="#fafafa" stroke="#d0d7de" stroke-width="2"/>

  <text x="170" y="90" text-anchor="middle" font-size="30" font-weight="700" fill="#263238" font-family="Arial">Dữ liệu huấn luyện</text>
  <g transform="translate(60,125)">
    <rect x="0" y="0" width="110" height="110" rx="12" fill="url(#imgA)" stroke="#1565c0" stroke-width="3"/>
    <circle cx="54" cy="52" r="26" fill="#64b5f6"/>
    <rect x="34" y="72" width="42" height="20" rx="6" fill="#1976d2"/>
    <rect x="130" y="0" width="110" height="110" rx="12" fill="url(#imgB)" stroke="#ef6c00" stroke-width="3"/>
    <polygon points="185,24 220,86 150,86" fill="#ffb74d"/>
    <rect x="260" y="0" width="110" height="110" rx="12" fill="url(#imgC)" stroke="#2e7d32" stroke-width="3"/>
    <rect x="292" y="30" width="48" height="60" rx="9" fill="#66bb6a"/>

    <rect x="0" y="135" width="110" height="110" rx="12" fill="url(#imgC)" stroke="#2e7d32" stroke-width="3"/>
    <circle cx="36" cy="45" r="18" fill="#81c784"/>
    <circle cx="76" cy="73" r="24" fill="#43a047"/>
    <rect x="130" y="135" width="110" height="110" rx="12" fill="url(#imgA)" stroke="#1565c0" stroke-width="3"/>
    <rect x="156" y="28" width="60" height="56" rx="8" fill="#42a5f5"/>
    <rect x="260" y="135" width="110" height="110" rx="12" fill="url(#imgB)" stroke="#ef6c00" stroke-width="3"/>
    <circle cx="315" cy="55" r="28" fill="#ff9800"/>
  </g>

  <path d="M455 300 L585 300" stroke="#555" stroke-width="5" fill="none" marker-end="url(#arrow)"/>

  <g transform="translate(610,145)">
    <rect x="0" y="0" width="250" height="285" rx="16" fill="#f7efe6" stroke="#b15a2b" stroke-width="4"/>
    <text x="125" y="46" text-anchor="middle" font-size="28" font-weight="700" fill="#8a3f1a" font-family="Arial">Mô hình sinh</text>
    <text x="125" y="88" text-anchor="middle" font-size="22" fill="#263238" font-family="Arial">học cấu trúc của</text>
    <text x="125" y="116" text-anchor="middle" font-size="24" font-weight="700" fill="#263238" font-family="Arial">p_data(x)</text>
    <path d="M50 168 C95 110 155 225 205 158" fill="none" stroke="#b15a2b" stroke-width="5"/>
    <circle cx="66" cy="160" r="7" fill="#1565c0"/>
    <circle cx="116" cy="138" r="7" fill="#ef6c00"/>
    <circle cx="164" cy="197" r="7" fill="#2e7d32"/>
    <circle cx="204" cy="158" r="7" fill="#7b1fa2"/>
    <text x="125" y="250" text-anchor="middle" font-size="20" fill="#455a64" font-family="Arial">mật độ, mẫu, điều kiện</text>
  </g>

  <path d="M880 300 L1010 300" stroke="#555" stroke-width="5" fill="none" marker-end="url(#arrow)"/>

  <text x="1080" y="90" text-anchor="middle" font-size="30" font-weight="700" fill="#263238" font-family="Arial">Ảnh mới</text>
  <g transform="translate(1000,150)">
    <rect x="0" y="0" width="165" height="165" rx="16" fill="#fff" stroke="#cfd8dc" stroke-width="3"/>
    <rect x="18" y="20" width="130" height="110" rx="12" fill="#e1f5fe" stroke="#1565c0" stroke-width="3"/>
    <circle cx="62" cy="65" r="22" fill="#29b6f6"/>
    <path d="M28 126 C56 82 78 105 94 82 C110 60 126 86 142 124 Z" fill="#4caf50"/>
    <text x="82" y="205" text-anchor="middle" font-size="22" fill="#455a64" font-family="Arial">không sao chép</text>
    <text x="82" y="235" text-anchor="middle" font-size="22" fill="#455a64" font-family="Arial">ảnh cụ thể</text>
  </g>

  <rect x="330" y="498" width="540" height="62" rx="10" fill="#fff3e0" stroke="#ef6c00" stroke-width="2"/>
  <text x="600" y="524" text-anchor="middle" font-size="21" font-weight="700" fill="#263238" font-family="Arial">Mục tiêu: sinh mẫu mới</text>
  <text x="600" y="548" text-anchor="middle" font-size="21" fill="#263238" font-family="Arial">có cùng phân phối với dữ liệu thật</text>
</svg>
