<svg xmlns="http://www.w3.org/2000/svg" width="1150" height="560" viewBox="0 0 1150 560" role="img" aria-label="YOLO SSD RetinaNet">
  <defs>
    <marker id="m" markerWidth="8" markerHeight="8" refX="7" refY="4" orient="auto">
      <path d="M0,0 L8,4 L0,8 Z" fill="#555"/>
    </marker>
    <style>
      .h{font:700 28px Arial,sans-serif;fill:#263238;text-anchor:middle}
      .t{font:700 22px Arial,sans-serif;fill:#263238;text-anchor:middle}
      .s{font:17px Arial,sans-serif;fill:#455a64;text-anchor:middle}
      .tiny{font:14px Arial,sans-serif;fill:#607d8b;text-anchor:middle}
      .panel{fill:white;stroke:#cfd8dc;stroke-width:2;rx:12}
      .line{stroke:#555;stroke-width:2;marker-end:url(#m)}
    </style>
  </defs>
  <rect width="1150" height="560" fill="#fafafa"/>
  <text class="h" x="575" y="42">Bộ phát hiện một giai đoạn: dự đoán dày đặc, rồi lọc kết quả</text>

  <g transform="translate(35,82)">
    <rect class="panel" width="330" height="410"/>
    <text class="t" x="165" y="38">YOLO</text>
    <rect x="75" y="70" width="180" height="180" rx="10" fill="#e3f2fd" stroke="#1565c0" stroke-width="2"/>
    <g stroke="#1565c0" opacity="0.55">
      <line x1="111" y1="70" x2="111" y2="250"/><line x1="147" y1="70" x2="147" y2="250"/><line x1="183" y1="70" x2="183" y2="250"/><line x1="219" y1="70" x2="219" y2="250"/>
      <line x1="75" y1="106" x2="255" y2="106"/><line x1="75" y1="142" x2="255" y2="142"/><line x1="75" y1="178" x2="255" y2="178"/><line x1="75" y1="214" x2="255" y2="214"/>
    </g>
    <rect x="145" y="118" width="66" height="74" fill="none" stroke="#ef6c00" stroke-width="4"/>
    <text class="s" x="165" y="292">Mỗi ô lưới dự đoán</text>
    <text class="s" x="165" y="318">hộp, độ tin cậy, lớp.</text>
    <text class="tiny" x="165" y="350">nhanh, xử lý toàn ảnh một lần</text>
  </g>

  <g transform="translate(410,82)">
    <rect class="panel" width="330" height="410"/>
    <text class="t" x="165" y="38">SSD</text>
    <rect x="50" y="82" width="70" height="70" fill="#e8f5e9" stroke="#2e7d32" stroke-width="2"/>
    <rect x="150" y="98" width="54" height="54" fill="#e8f5e9" stroke="#2e7d32" stroke-width="2"/>
    <rect x="230" y="112" width="38" height="38" fill="#e8f5e9" stroke="#2e7d32" stroke-width="2"/>
    <line class="line" x1="120" y1="117" x2="144" y2="123"/>
    <line class="line" x1="204" y1="125" x2="224" y2="130"/>
    <rect x="58" y="177" width="80" height="42" fill="none" stroke="#ef6c00" stroke-width="3"/>
    <rect x="156" y="180" width="48" height="64" fill="none" stroke="#1565c0" stroke-width="3"/>
    <rect x="230" y="176" width="70" height="70" fill="none" stroke="#7b1fa2" stroke-width="3"/>
    <text class="s" x="165" y="292">Dự đoán trên nhiều</text>
    <text class="s" x="165" y="318">bản đồ đặc trưng khác tỉ lệ.</text>
    <text class="tiny" x="165" y="350">tự nhiên hơn cho vật nhỏ/lớn</text>
  </g>

  <g transform="translate(785,82)">
    <rect class="panel" width="330" height="410"/>
    <text class="t" x="165" y="38">RetinaNet</text>
    <rect x="46" y="82" width="90" height="54" fill="#fff3e0" stroke="#ef6c00" stroke-width="2"/>
    <rect x="78" y="154" width="90" height="54" fill="#fff3e0" stroke="#ef6c00" stroke-width="2"/>
    <rect x="118" y="226" width="90" height="54" fill="#fff3e0" stroke="#ef6c00" stroke-width="2"/>
    <path d="M136 109 C192 112 224 126 254 160" fill="none" stroke="#78909c" stroke-width="2"/>
    <path d="M168 181 C205 183 230 178 258 158" fill="none" stroke="#78909c" stroke-width="2"/>
    <path d="M208 253 C238 235 254 205 258 158" fill="none" stroke="#78909c" stroke-width="2"/>
    <rect x="244" y="126" width="58" height="64" fill="#f3e5f5" stroke="#7b1fa2" stroke-width="2"/>
    <text class="tiny" x="273" y="152">tháp</text>
    <text class="tiny" x="273" y="172">đặc trưng</text>
    <text class="s" x="165" y="306">Tháp đặc trưng</text>
    <text class="s" x="165" y="332">+ mất mát tập trung</text>
    <text class="tiny" x="165" y="362">giảm áp lực từ nền dễ</text>
  </g>
</svg>
